<mxfile host="app.diagrams.net" modified="2023-07-05T20:18:49.794Z" agent="Mozilla/5.0 (Windows NT 10.0; Win64; x64) AppleWebKit/537.36 (KHTML, like Gecko) Chrome/113.0.0.0 Safari/537.36" etag="twb5KsV0JgZnpH8kTRAy" version="21.5.2" type="device">
  <diagram name="Page-1" id="-AKLChw0IvpyFAJwCWtV">
    <mxGraphModel dx="794" dy="462" grid="1" gridSize="10" guides="1" tooltips="1" connect="1" arrows="1" fold="1" page="1" pageScale="1" pageWidth="850" pageHeight="1100" math="0" shadow="0">
      <root>
        <mxCell id="0" />
        <mxCell id="1" parent="0" />
        <mxCell id="hgeI30c47Y0545O9S0Wd-2" value="Receipts Table" style="swimlane;whiteSpace=wrap;html=1;" vertex="1" parent="1">
          <mxGeometry x="60" y="40" width="255" height="240" as="geometry" />
        </mxCell>
        <mxCell id="hgeI30c47Y0545O9S0Wd-6" value="&lt;div style=&quot;font-size: 11px;&quot;&gt;&lt;ul&gt;&lt;li&gt;&lt;font style=&quot;font-size: 11px;&quot;&gt;&lt;b&gt;_id: UUID (Primary Key)&lt;/b&gt;&lt;/font&gt;&lt;/li&gt;&lt;li&gt;&lt;font style=&quot;font-size: 11px;&quot;&gt;bonusPointsEarned: Integer&lt;/font&gt;&lt;/li&gt;&lt;li&gt;&lt;font style=&quot;font-size: 11px;&quot;&gt;bonusPointsEarnedReason: String&lt;/font&gt;&lt;/li&gt;&lt;li&gt;&lt;font style=&quot;font-size: 11px;&quot;&gt;createDate: Date&lt;/font&gt;&lt;/li&gt;&lt;li&gt;&lt;font style=&quot;font-size: 11px;&quot;&gt;dateScanned: Date&lt;/font&gt;&lt;/li&gt;&lt;li&gt;&lt;font style=&quot;font-size: 11px;&quot;&gt;finishedDate: Date&lt;/font&gt;&lt;/li&gt;&lt;li&gt;&lt;font style=&quot;font-size: 11px;&quot;&gt;modifyDate: Date&lt;/font&gt;&lt;/li&gt;&lt;li&gt;&lt;font style=&quot;font-size: 11px;&quot;&gt;pointsAwardedDate: Date&lt;/font&gt;&lt;/li&gt;&lt;li&gt;&lt;font style=&quot;font-size: 11px;&quot;&gt;pointsEarned: Integer&lt;/font&gt;&lt;/li&gt;&lt;li&gt;&lt;font style=&quot;font-size: 11px;&quot;&gt;purchaseDate: Date&lt;/font&gt;&lt;/li&gt;&lt;li&gt;&lt;font style=&quot;font-size: 11px;&quot;&gt;purchasedItemCount: Integer&lt;/font&gt;&lt;/li&gt;&lt;li&gt;&lt;font style=&quot;font-size: 11px;&quot;&gt;rewardsReceiptStatus: String&lt;/font&gt;&lt;/li&gt;&lt;li&gt;&lt;font style=&quot;font-size: 11px;&quot;&gt;totalSpent: Integer&lt;/font&gt;&lt;/li&gt;&lt;li&gt;&lt;font style=&quot;font-size: 11px;&quot;&gt;userId: String (Foreign Key: Users._id)&lt;/font&gt;&lt;/li&gt;&lt;/ul&gt;&lt;/div&gt;" style="text;html=1;align=left;verticalAlign=middle;resizable=0;points=[];autosize=1;strokeColor=none;fillColor=none;" vertex="1" parent="hgeI30c47Y0545O9S0Wd-2">
          <mxGeometry x="-17.5" y="20" width="250" height="220" as="geometry" />
        </mxCell>
        <mxCell id="hgeI30c47Y0545O9S0Wd-3" value="ReceiptItems Table" style="swimlane;whiteSpace=wrap;html=1;" vertex="1" parent="1">
          <mxGeometry x="520" y="40" width="210" height="240" as="geometry" />
        </mxCell>
        <mxCell id="hgeI30c47Y0545O9S0Wd-9" value="&lt;div style=&quot;font-size: 11px;&quot;&gt;&lt;ul&gt;&lt;li&gt;&lt;b&gt;receiptItemId: UUID (Primary Key)&lt;/b&gt;&lt;/li&gt;&lt;li&gt;_id: UUID (Foreign Key: Receipts._id)&lt;/li&gt;&lt;li&gt;itemName: String&lt;/li&gt;&lt;li&gt;itemPrice: Integer&lt;/li&gt;&lt;li&gt;itemQuantity: Integer&lt;/li&gt;&lt;/ul&gt;&lt;/div&gt;" style="text;html=1;strokeColor=none;fillColor=none;align=left;verticalAlign=middle;whiteSpace=wrap;rounded=0;" vertex="1" parent="hgeI30c47Y0545O9S0Wd-3">
          <mxGeometry x="-20" y="-10" width="220" height="240" as="geometry" />
        </mxCell>
        <mxCell id="hgeI30c47Y0545O9S0Wd-4" value="User Table" style="swimlane;whiteSpace=wrap;html=1;" vertex="1" parent="1">
          <mxGeometry x="70" y="400" width="215" height="200" as="geometry" />
        </mxCell>
        <mxCell id="hgeI30c47Y0545O9S0Wd-10" value="&lt;div&gt;&lt;ul&gt;&lt;li&gt;&lt;b&gt;_id: UUID (Primary Key)&lt;/b&gt;&lt;/li&gt;&lt;li&gt;state: String&lt;/li&gt;&lt;li&gt;createdDate: Date&lt;/li&gt;&lt;li&gt;lastLogin: Date&lt;/li&gt;&lt;li&gt;role: String&lt;/li&gt;&lt;li&gt;active: Boolean&lt;/li&gt;&lt;/ul&gt;&lt;/div&gt;" style="text;html=1;strokeColor=none;fillColor=none;align=left;verticalAlign=middle;whiteSpace=wrap;rounded=0;" vertex="1" parent="hgeI30c47Y0545O9S0Wd-4">
          <mxGeometry x="-10" y="-10" width="190" height="220" as="geometry" />
        </mxCell>
        <mxCell id="hgeI30c47Y0545O9S0Wd-21" value="&lt;b&gt;1&lt;/b&gt;" style="text;html=1;strokeColor=none;fillColor=none;align=center;verticalAlign=middle;whiteSpace=wrap;rounded=0;" vertex="1" parent="hgeI30c47Y0545O9S0Wd-4">
          <mxGeometry x="67.5" y="-30" width="60" height="30" as="geometry" />
        </mxCell>
        <mxCell id="hgeI30c47Y0545O9S0Wd-5" value="Brands Table" style="swimlane;whiteSpace=wrap;html=1;" vertex="1" parent="1">
          <mxGeometry x="520" y="390" width="220" height="230" as="geometry" />
        </mxCell>
        <mxCell id="hgeI30c47Y0545O9S0Wd-11" value="&lt;div&gt;&lt;ul&gt;&lt;li&gt;&lt;b&gt;_id: UUID (Primary Key)&lt;/b&gt;&lt;/li&gt;&lt;li&gt;barcode: String&amp;nbsp;&lt;/li&gt;&lt;li&gt;brandCode: String&amp;nbsp;&amp;nbsp;&lt;/li&gt;&lt;li&gt;category: String&amp;nbsp;&lt;/li&gt;&lt;li&gt;categoryCode: String&amp;nbsp;&lt;/li&gt;&lt;li&gt;cpg: String&amp;nbsp;&lt;/li&gt;&lt;li&gt;topBrand: Boolean&lt;/li&gt;&lt;li&gt;name: String&lt;/li&gt;&lt;/ul&gt;&lt;/div&gt;" style="text;html=1;strokeColor=none;fillColor=none;align=left;verticalAlign=middle;whiteSpace=wrap;rounded=0;" vertex="1" parent="hgeI30c47Y0545O9S0Wd-5">
          <mxGeometry x="-10" y="10" width="230" height="220" as="geometry" />
        </mxCell>
        <mxCell id="hgeI30c47Y0545O9S0Wd-12" value="" style="endArrow=none;html=1;rounded=0;exitX=0.25;exitY=1;exitDx=0;exitDy=0;" edge="1" parent="1" source="hgeI30c47Y0545O9S0Wd-22" target="hgeI30c47Y0545O9S0Wd-13">
          <mxGeometry width="50" height="50" relative="1" as="geometry">
            <mxPoint x="380" y="250" as="sourcePoint" />
            <mxPoint x="400" y="160" as="targetPoint" />
          </mxGeometry>
        </mxCell>
        <mxCell id="hgeI30c47Y0545O9S0Wd-13" value="HAS" style="rhombus;whiteSpace=wrap;html=1;" vertex="1" parent="1">
          <mxGeometry x="380" y="120" width="70" height="80" as="geometry" />
        </mxCell>
        <mxCell id="hgeI30c47Y0545O9S0Wd-16" value="" style="endArrow=none;html=1;rounded=0;entryX=1;entryY=0.5;entryDx=0;entryDy=0;exitX=0.091;exitY=0.542;exitDx=0;exitDy=0;exitPerimeter=0;" edge="1" parent="1" source="hgeI30c47Y0545O9S0Wd-9" target="hgeI30c47Y0545O9S0Wd-13">
          <mxGeometry width="50" height="50" relative="1" as="geometry">
            <mxPoint x="520" y="160" as="sourcePoint" />
            <mxPoint x="430" y="200" as="targetPoint" />
            <Array as="points" />
          </mxGeometry>
        </mxCell>
        <mxCell id="hgeI30c47Y0545O9S0Wd-17" value="HAS" style="rhombus;whiteSpace=wrap;html=1;" vertex="1" parent="1">
          <mxGeometry x="130" y="320" width="60" height="60" as="geometry" />
        </mxCell>
        <mxCell id="hgeI30c47Y0545O9S0Wd-18" value="" style="endArrow=none;html=1;rounded=0;entryX=0.471;entryY=1.015;entryDx=0;entryDy=0;entryPerimeter=0;exitX=0.5;exitY=0;exitDx=0;exitDy=0;" edge="1" parent="1" source="hgeI30c47Y0545O9S0Wd-17" target="hgeI30c47Y0545O9S0Wd-6">
          <mxGeometry width="50" height="50" relative="1" as="geometry">
            <mxPoint x="380" y="440" as="sourcePoint" />
            <mxPoint x="430" y="390" as="targetPoint" />
          </mxGeometry>
        </mxCell>
        <mxCell id="hgeI30c47Y0545O9S0Wd-19" value="" style="endArrow=none;html=1;rounded=0;entryX=0.5;entryY=1;entryDx=0;entryDy=0;" edge="1" parent="1" target="hgeI30c47Y0545O9S0Wd-17">
          <mxGeometry width="50" height="50" relative="1" as="geometry">
            <mxPoint x="160" y="400" as="sourcePoint" />
            <mxPoint x="430" y="390" as="targetPoint" />
          </mxGeometry>
        </mxCell>
        <mxCell id="hgeI30c47Y0545O9S0Wd-20" value="&lt;b&gt;1&lt;/b&gt;" style="text;html=1;strokeColor=none;fillColor=none;align=center;verticalAlign=middle;whiteSpace=wrap;rounded=0;" vertex="1" parent="1">
          <mxGeometry x="140" y="280" width="60" height="30" as="geometry" />
        </mxCell>
        <mxCell id="hgeI30c47Y0545O9S0Wd-23" value="" style="endArrow=none;html=1;rounded=0;exitX=1;exitY=0.5;exitDx=0;exitDy=0;" edge="1" parent="1" source="hgeI30c47Y0545O9S0Wd-2" target="hgeI30c47Y0545O9S0Wd-22">
          <mxGeometry width="50" height="50" relative="1" as="geometry">
            <mxPoint x="315" y="160" as="sourcePoint" />
            <mxPoint x="380" y="160" as="targetPoint" />
          </mxGeometry>
        </mxCell>
        <mxCell id="hgeI30c47Y0545O9S0Wd-22" value="&lt;b&gt;M&lt;/b&gt;" style="text;html=1;strokeColor=none;fillColor=none;align=center;verticalAlign=middle;whiteSpace=wrap;rounded=0;" vertex="1" parent="1">
          <mxGeometry x="300" y="130" width="60" height="30" as="geometry" />
        </mxCell>
        <mxCell id="hgeI30c47Y0545O9S0Wd-27" value="&lt;b&gt;M&lt;/b&gt;" style="text;html=1;strokeColor=none;fillColor=none;align=center;verticalAlign=middle;whiteSpace=wrap;rounded=0;" vertex="1" parent="1">
          <mxGeometry x="470" y="130" width="60" height="30" as="geometry" />
        </mxCell>
        <mxCell id="hgeI30c47Y0545O9S0Wd-29" value="HAS" style="rhombus;whiteSpace=wrap;html=1;" vertex="1" parent="1">
          <mxGeometry x="395" y="290" width="60" height="60" as="geometry" />
        </mxCell>
        <mxCell id="hgeI30c47Y0545O9S0Wd-30" value="" style="endArrow=none;html=1;rounded=0;entryX=1;entryY=1;entryDx=0;entryDy=0;exitX=0;exitY=0.5;exitDx=0;exitDy=0;" edge="1" parent="1" source="hgeI30c47Y0545O9S0Wd-29" target="hgeI30c47Y0545O9S0Wd-2">
          <mxGeometry width="50" height="50" relative="1" as="geometry">
            <mxPoint x="380" y="410" as="sourcePoint" />
            <mxPoint x="430" y="360" as="targetPoint" />
          </mxGeometry>
        </mxCell>
        <mxCell id="hgeI30c47Y0545O9S0Wd-31" value="" style="endArrow=none;html=1;rounded=0;entryX=1;entryY=1;entryDx=0;entryDy=0;exitX=0;exitY=0;exitDx=0;exitDy=0;" edge="1" parent="1" source="hgeI30c47Y0545O9S0Wd-5" target="hgeI30c47Y0545O9S0Wd-29">
          <mxGeometry width="50" height="50" relative="1" as="geometry">
            <mxPoint x="380" y="410" as="sourcePoint" />
            <mxPoint x="430" y="360" as="targetPoint" />
          </mxGeometry>
        </mxCell>
        <mxCell id="hgeI30c47Y0545O9S0Wd-32" value="&lt;b&gt;M&lt;/b&gt;" style="text;html=1;strokeColor=none;fillColor=none;align=center;verticalAlign=middle;whiteSpace=wrap;rounded=0;" vertex="1" parent="1">
          <mxGeometry x="300" y="260" width="60" height="30" as="geometry" />
        </mxCell>
        <mxCell id="hgeI30c47Y0545O9S0Wd-33" value="&lt;b&gt;1&lt;/b&gt;" style="text;html=1;strokeColor=none;fillColor=none;align=center;verticalAlign=middle;whiteSpace=wrap;rounded=0;" vertex="1" parent="1">
          <mxGeometry x="490" y="360" width="60" height="30" as="geometry" />
        </mxCell>
      </root>
    </mxGraphModel>
  </diagram>
</mxfile>
